<svg xmlns="http://www.w3.org/2000/svg" xmlns:xlink="http://www.w3.org/1999/xlink" width="28" height="28" viewBox="0 0 28 28">
  <defs>
    <clipPath id="clip-path">
      <rect id="Rectangle_468" data-name="Rectangle 468" width="16.345" height="16.323" fill="#1c395c"/>
    </clipPath>
  </defs>
  <rect id="Rectangle_566" data-name="Rectangle 566" width="28" height="28" rx="5" fill="#ffc65a"/>
  <g id="Group_1338" data-name="Group 1338" transform="translate(5.5 5.493)">
    <g id="Group_1008" data-name="Group 1008" clip-path="url(#clip-path)">
      <path id="Path_1091" data-name="Path 1091" d="M106.35,1.91l.235-.321A10.783,10.783,0,0,0,107.821.353l.334-.282a1.168,1.168,0,0,1,1.332.39c.542.6,1.119,1.163,1.708,1.713a1.073,1.073,0,0,1,.349,1.284l-.29.322a11.127,11.127,0,0,0-1.241,1.241l-.312.231-.293-.238a11.768,11.768,0,0,0-1.258-1.256.7.7,0,0,0-.3-.3l-1.14-1.145-.361-.406" transform="translate(-95.288 0)" fill="#1c395c"/>
      <path id="Path_1092" data-name="Path 1092" d="M1.978,42.008H.426q-.462.04-.422-.422,0-.776,0-1.552a7.9,7.9,0,0,1,.1-1.557.811.811,0,0,0,.315-.316A11.057,11.057,0,0,0,1.66,36.922a.81.81,0,0,0,.316-.316,10.966,10.966,0,0,0,1.241-1.238l.314-.314a10.974,10.974,0,0,0,1.24-1.24l.314-.314a10.975,10.975,0,0,0,1.24-1.24.807.807,0,0,0,.314-.314,11,11,0,0,0,1.24-1.24l.314-.314a10.937,10.937,0,0,0,1.24-1.24.808.808,0,0,0,.314-.314c.217-.231.389-.222.625.022q1.366,1.413,2.78,2.779c.241.233.264.406.027.626l-.318.318a10.784,10.784,0,0,0-1.237,1.237l-.317.317a10.768,10.768,0,0,0-1.237,1.237l-.317.317a10.767,10.767,0,0,0-1.237,1.237l-.317.317a10.767,10.767,0,0,0-1.237,1.237l-.317.317a10.942,10.942,0,0,0-1.238,1.236.82.82,0,0,0-.316.316A10.924,10.924,0,0,0,3.853,41.59a.81.81,0,0,0-.317.318,8.311,8.311,0,0,1-1.558.1m5.448-8.2a3.491,3.491,0,0,0-.8.8l-.758.758a3.494,3.494,0,0,0-.8.8l-.758.758a29.22,29.22,0,0,0-2.418,2.4c-.107.882-.092.9.793.795.092-.075.191-.143.275-.227q3.736-3.728,7.469-7.46c.474-.474.458-.464-.018-.969-.27-.286-.476-.389-.681.037l-.758.758a3.489,3.489,0,0,0-.8.8l-.758.758" transform="translate(0 -25.688)" fill="#1c395c"/>
    </g>
  </g>
</svg>